<svg version="1.1" id="Layer_1" xmlns="http://www.w3.org/2000/svg" x="0px" y="0px" viewBox="0 0 1200 1200" enable-background="new 0 0 1200 1200" xml:space="preserve">
<g>
	<path fill="#443254" d="M973.297,329.187c5.061-6.688,4.725-13.686,0.413-20.633c-1.498-2.401-2.634-4.751-2.272-7.747&#10;&#9;&#9;c0.801-6.197-2.454-10.845-6.869-14.306c-4.054-3.202-7.024-6.43-7.101-11.904c-0.052-2.763-1.317-5.603-3.46-7.385&#10;&#9;&#9;c-5.294-4.364-8.264-9.658-10.329-16.346c-1.291-4.132-2.505-7.566-1.782-12.033c1.91-12.059-0.129-23.137-8.961-32.485&#10;&#9;&#9;c-7.075-7.489-10.329-16.811-12.292-26.856c-0.903-4.648,0.749-9.038-0.335-13.66c-3.073-13.17-10.794-22.595-22.234-29.154&#10;&#9;&#9;c-8.599-4.932-15.829-10.665-21.691-19.212c-9.839-14.409-24.015-21.846-42.169-18.257c-4.338,0.852-7.463-0.207-11.026-2.634&#10;&#9;&#9;c-5.707-3.848-11.672-6.843-15.597-13.221c-2.866-4.7-8.573-6.843-14.46-6.92c-2.763-0.052-5.578-0.181-8.289,0.232&#10;&#9;&#9;c-4.261,0.646-7.489-0.542-10.845-3.357c-5.682-4.674-11.775-9.038-19.187-10.665c-6.43-1.394-12.989-1.885-17.379-8.108&#10;&#9;&#9;c-1.343-1.911-4.803-2.892-7.437-3.254c-11.62-1.575-23.292-2.608-34.396,2.557c-3.46,1.601-6.507,2.376-10.51,1.136&#10;&#9;&#9;c-6.352-1.937-12.782-0.93-18.696,2.453c-2.118,1.214-4.157,2.582-6.817,2.427c-8.315-0.568-14.977,3.047-20.426,8.857&#10;&#9;&#9;c-2.711,2.892-5.216,3.228-8.935,2.557c-12.421-2.221-24.996-3.099-37.65-2.634c-4.596,0-9.218-0.129-13.841,0.026&#10;&#9;&#9;c-24.48,0.904-48.314,5.578-70.754,15.313c-35.997,15.649-60.038,43.95-78.915,77.313c-1.833,3.254-3.718,6.92-3.409,10.381&#10;&#9;&#9;c0.801,8.935-3.641,16.707-4.467,25.126c-0.516,5.629-2.892,7.799-8.289,8.754c-5.604,0.981-11.362,2.04-15.132,7.618&#10;&#9;&#9;c-7.307,10.82-8.367,31.994-1.059,42.866c2.556,3.822,1.678,5.268-1.369,8.057c-5.087,4.674-11.156,8.96-11.258,17.172&#10;&#9;&#9;c-0.026,1.575-1.782,3.124-2.737,4.674c-2.686,4.493-5.707,8.805-8.005,13.479c-3.744,7.644-5.81,16.062-2.453,24.041&#10;&#9;&#9;c3.073,7.282,7.075,14.487,12.73,20.168c3.228,3.202,5.113,6.662,6.378,10.794c1.162,3.899,2.867,8.083,6.999,9.116&#10;&#9;&#9;c5.397,1.343,6.507,4.777,6.869,9.374c0.233,2.763,0.516,5.604,1.42,8.16c1.601,4.519-0.49,6.43-4.184,8.599&#10;&#9;&#9;c-11.026,6.507-19.031,15.571-20.917,28.767c-3.021,21.097-4.054,42.22,0.827,63.214c1.317,5.655,3.125,11.104,6.275,16.217&#10;&#9;&#9;c9.296,14.977,23.964,21.898,39.871,26.081c7.359,1.937,11.052,5.397,12.808,12.137c0.233,0.955,0.62,1.885,0.955,2.815&#10;&#9;&#9;c-30.625,21.846-50.638,57.636-50.612,98.23c0.052,53.608,33.802,95.028,76.874,111.942c-6.507,8.806-13.66,16.991-22.362,23.757&#10;&#9;&#9;c-28.974,22.517-60.426,39.948-96.914,47.049c-37.675,7.334-75.273,15.029-113.026,21.949c-11.801,2.169-15.21,10.252-8.444,20.891&#10;&#9;&#9;c3.305,5.19,7.592,9.658,12.42,13.531c16.811,13.428,33.931,26.546,51.982,38.166c14.719,9.477,29.102,19.419,43.925,28.767&#10;&#9;&#9;c19.987,12.627,38.502,27.398,57.404,41.626c14.745,11.052,29.102,22.569,44.415,32.924c23.137,15.674,47.282,30.032,69.102,47.514&#10;&#9;&#9;c28.302,22.672,55.906,46.197,83.64,69.541c15.932,13.402,33.75,18.283,54.073,13.325c6.869-1.678,13.635-3.693,20.193-6.404&#10;&#9;&#9;c21.614-9.012,42.065-20.038,60.839-34.241c19.109-14.461,38.631-28.405,57.224-43.563c21.975-17.921,42.349-37.211,58.256-61.122&#10;&#9;&#9;c11.801-17.714,22.853-35.687,31.736-55.002c2.35-5.113,3.616-10.458,3.616-16.036c-0.026-18.257-6.12-33.699-21.2-44.802&#10;&#9;&#9;c-4.7-3.46-9.452-6.869-14.435-9.916c-14.951-9.115-29.903-18.231-45.138-26.881c-4.467-2.531-4.829-5.061-3.616-9.529&#10;&#9;&#9;c6.585-23.989,13.041-48.005,19.187-72.097c2.788-11,5.216-22.078,6.714-33.363c2.531-19.16,4.881-38.347,8.29-57.404&#10;&#9;&#9;c5.603-31.452,9.58-63.163,7.927-95.286c-0.335-6.094,0.516-12.266,0.723-18.412c0.103-2.711,0.749-4.571,3.848-5.268&#10;&#9;&#9;c7.902-1.782,13.583-6.843,18.257-13.221c1.084-1.472,2.143-2.763,4.286-3.099c13.557-2.04,20.555-11.388,24.661-23.266&#10;&#9;&#9;c2.505-7.256,6.352-13.299,12.318-17.921c14.099-10.975,21.691-25.564,24.789-42.866c1.291-7.308,3.409-14.306,8.315-20.219&#10;&#9;&#9;c2.169-2.608,3.77-5.81,4.131-9.167c0.904-8.418,3.435-15.829,10.045-21.639c2.324-2.04,3.124-5.216,3.692-8.289&#10;&#9;&#9;c0.929-4.932,0.827-9.838-0.49-14.641c-1.188-4.286,1.188-7.85,2.479-11.465c0.929-2.634,4.39-1.369,6.688-1.756&#10;&#9;&#9;c6.327-1.033,10.536-4.416,13.247-10.174c3.564-7.54,4.906-15.21,2.35-23.24C971.308,334.687,971.153,332.028,973.297,329.187z&#10;&#9;&#9; M923.82,234.521c-2.376,1.679-4.416,0.413-6.198,0.155c-6.146-0.904-12.085-0.749-18.128,1.11&#10;&#9;&#9;c-7.643,2.376-7.669,2.117-12.627-4.648c-3.435-4.674-7.024-9.245-10.458-13.944c-3.873-5.294-3.047-7.075,3.589-7.953&#10;&#9;&#9;c8.135-1.11,19.677,2.35,28.199,8.935c-12.343,0.31-12.343,0.31-18.438,4.777C902.671,223.934,914.576,224.76,923.82,234.521z&#10;&#9;&#9; M933.969,246.838c-21.149-0.181-21.149-0.181-29.361,9.193c-3.434-4.235-6.275-8.108-8.883-13.118&#10;&#9;&#9;C908.894,237.387,920.618,239.531,933.969,246.838z M905.383,267.161c4.932-16.63,16.036-20.452,31.478-9.709&#10;&#9;&#9;c-13.918,0.052-22.466,9.606-31.917,17.947C903.523,271.732,904.737,269.382,905.383,267.161z M927.926,209.679&#10;&#9;&#9;c9.038,8.418,9.994,19.109,8.082,30.729c-2.324,0.103-3.382-0.568-3.847-1.756c-2.609-6.507-6.792-11.595-12.938-15.003&#10;&#9;&#9;c-1.704-0.955-2.504-2.582-3.537-4.132c-9.012-13.583-27.475-19.393-42.892-13.324c-2.246,0.904-3.822,1.472-5.629-0.542&#10;&#9;&#9;c-6.301-7.024-12.86-13.867-18.282-21.614c9.399-8.367,15.958-8.986,25.719-2.505c1.523,1.007,3.176,1.988,4.39,3.331&#10;&#9;&#9;c5.888,6.456,13.273,9.58,21.872,10.329C911.89,196.174,920.205,202.501,927.926,209.679z M919.92,195.529&#10;&#9;&#9;c-8.805-4.674-17.404-5.81-25.977-7.179c-3.719-0.594-6.637-3.099-9.245-5.733c-3.512-3.512-7.462-6.482-11.93-8.521&#10;&#9;&#9;c-8.47-3.848-16.914-3.538-24.222,2.479c-3.537,2.918-5.397,2.092-8.341-0.62c-9.632-8.96-18.928-18.334-30.626-27.217&#10;&#9;&#9;c15.132-7.644,29.696-10.045,44.958-8.263c7.127,0.801,12.162,5.681,17.146,10.122c3.564,3.176,7.36,5.578,11.93,6.585&#10;&#9;&#9;c8.65,1.885,15.752,6.636,22.595,11.879c5.19,3.951,9.735,8.186,9.761,15.7C915.97,187.859,918.165,190.958,919.92,195.529z&#10;&#9;&#9; M845.99,104.064c12.549,0.516,21.278,8.263,27.553,17.947c5.088,7.876,11.569,13.221,19.367,17.792&#10;&#9;&#9;c13.841,8.16,18.102,13.634,22.75,27.63c-1.73,1.523-2.711-0.155-3.744-0.981c-8.47-6.791-17.327-12.756-28.199-15.029&#10;&#9;&#9;c-3.744-0.775-6.533-3.28-9.27-5.81c-10.639-9.864-23.034-13.402-37.417-10.897c-9.09,1.601-18.231,2.737-26.494,7.282&#10;&#9;&#9;c-3.822,2.117-7.256,2.117-10.845-1.11c-4.261-3.796-9.116-6.998-14.409-11.001C803.176,114.109,822.078,103.083,845.99,104.064z&#10;&#9;&#9; M820.167,100.707c-10.432,5.81-20.787,10.2-29.619,17.146c-1.446,1.11-3.047,2.04-4.39,3.28c-6.198,5.629-6.198,5.707-13.17,1.653&#10;&#9;&#9;c-5.009-2.892-9.967-5.888-16.217-9.606c14.099-7.05,25.436-17.25,43.641-16.707c-7.024,4.545-12.731,7.566-16.449,12.911&#10;&#9;&#9;c-0.568,0.826-0.542,1.679,0.31,3.357c5.552-3.383,10.923-7.127,16.707-10.045C806.636,99.829,812.679,97.273,820.167,100.707z&#10;&#9;&#9; M738.154,61.508c-6.507,2.479-12.73,4.751-18.851,7.256c-3.977,1.601-7.85,3.538-10.949,6.662c-0.62,0.646-1.214,1.42-0.749,2.453&#10;&#9;&#9;c0.671,1.446,1.782,1.394,2.996,0.775c7.695-3.848,15.803-6.662,23.912-9.58c13.996-5.035,25.487-0.103,37.365,8.728&#10;&#9;&#9;c-12.963,4.984-26.908,6.611-35.223,18.902c3.254,1.833,4.339-0.129,5.733-1.007c15.262-9.658,32.124-13.402,49.916-13.867&#10;&#9;&#9;c5.216-0.155,9.348,2.092,12.576,5.681c-0.336,2.169-1.756,2.04-2.841,2.092c-16.217,1.059-30.342,7.308-42.737,17.534&#10;&#9;&#9;c-4.028,3.331-7.231,4.028-12.137,1.162c-20.632-12.007-43.769-17.559-66.235-24.712c-2.066-0.671-4.132-1.214-6.172-1.911&#10;&#9;&#9;c-0.465-0.181-0.801-0.723-1.214-1.11C690.175,53.142,723.745,49.294,738.154,61.508z M683.152,61.069&#10;&#9;&#9;c-4.002,4.209-8.005,8.444-11.981,12.653c-6.094,6.507-6.12,6.507-15.571,2.143C664.895,61.405,673.649,56.705,683.152,61.069z&#10;&#9;&#9; M654.953,65.743c-2.763,4.209-4.08,10.949-12.318,8.031C645.218,68.532,649.789,66.828,654.953,65.743z M433.782,161.985&#10;&#9;&#9;c18.049-30.781,40.361-57.327,73.568-72.665c19.47-9.012,40.206-13.583,61.432-15.132c32.408-2.35,64.273,0.465,95.673,9.916&#10;&#9;&#9;c21.743,6.533,44.235,10.975,64.712,20.942c33.725,16.449,66.081,35.042,93.995,60.89c26.623,24.635,48.65,52.859,69.515,82.194&#10;&#9;&#9;c0.722,1.007,1.549,1.963,2.143,3.021c2.273,4.132,8.005,6.559,6.818,12.318c-1.937,9.374-4.519,18.592-12.292,25.126&#10;&#9;&#9;c-3.512,2.944-6.946,2.401-13.402-1.498c1.575-3.589,3.563-7.075,4.725-10.82c3.202-10.303-0.646-18.567-10.82-22.104&#10;&#9;&#9;c-4.003-1.394-6.378-2.298-5.552-7.282c1.369-8.057-3.512-12.911-10.252-15.468c-5.914-2.247-12.06-4.519-18.773-3.383&#10;&#9;&#9;c-5.345,0.93-9.787-0.93-12.602-5.629c-5.5-9.193-13.944-13.634-24.119-15.158c-4.88-0.749-8.392-2.247-10.458-7.411&#10;&#9;&#9;c-2.582-6.43-8.754-9.219-14.977-11.362c-3.822-1.291-7.308-2.815-10.148-5.887c-2.299-2.479-5.268-4.674-8.651-5.061&#10;&#9;&#9;c-7.954-0.93-13.092-5.784-17.998-11.439c-4.958-5.733-11.543-8.831-18.566-11.491c-14.332-5.397-29.128-7.359-44.286-7.411&#10;&#9;&#9;c-9.967-0.052-19.522-2.35-28.896-5.397c-14.486-4.726-29.076-4.235-43.666-1.085c-4.622,0.981-8.987,0.93-13.609,0.568&#10;&#9;&#9;c-23.421-1.782-46.662-0.955-69.438,5.655c-5.913,1.73-11.982,2.143-18.23,1.601c-9.038-0.8-16.914,2.582-23.473,8.754&#10;&#9;&#9;c-3.176,2.97-6.404,5.707-10.484,7.334c-2.608,1.033-5.268,1.963-8.056,0.852c-10.355-4.028-19.264-2.376-26.494,8.547&#10;&#9;&#9;C430.321,168.337,431.948,165.083,433.782,161.985z M858.695,312.196c-5.268,3.848-11.13,4.467-17.068,0.387&#10;&#9;&#9;c-7.231-4.984-14.771-5.397-23.577-3.279c-13.428,3.254-26.081,8.935-39.612,11.723c-7.334,1.524-13.996,0.852-20.452-2.66&#10;&#9;&#9;c-2.686-1.446-5.448-2.918-5.758-5.061c-0.18-2.092,0.258-2.686,0.956-2.479c9.684,2.634,18.644,0.465,27.656-3.254&#10;&#9;&#9;c9.399-3.899,18.67-7.902,26.855-14.022c7.567-5.655,15.107-6.172,22.802-0.594c7.385,5.319,15.545,5.165,22.492,0.775&#10;&#9;&#9;c8.547-5.397,16.01-7.075,24.17-0.129c1.317,1.11,3.693,0.594,4.88,2.918C874.188,301.583,866.313,306.67,858.695,312.196z&#10;&#9;&#9; M869.101,311.421c-4.648,8.237-9.296,16.165-17.043,22.104c-7.747,5.965-15.597,5.603-23.06,0.852&#10;&#9;&#9;c-9.296-5.939-18.592-10.665-30.032-9.503c-2.014,0.207-4.235-0.465-5.862-2.143c9.477-6.301,20.607-7.54,31.194-10.407&#10;&#9;&#9;c4.286-1.162,8.444,0.31,12.343,2.453c13.686,7.514,17.328,7.153,29.593-2.763C866.932,311.473,867.527,310.776,869.101,311.421z&#10;&#9;&#9; M748.793,303.08c-11.904-10.071-25.642-15.52-42.272-15.029c3.77-8.547,12.266-12.059,21.433-9.399&#10;&#9;&#9;c2.066,0.568,4.003,1.575,5.965,2.401c10.613,4.364,20.994,3.202,31.271-1.265c5.423-2.35,8.573-6.611,10.51-12.111&#10;&#9;&#9;c4.235-11.904,13.221-16.63,25.435-15.623c9.322,0.775,17.043,5.01,24.893,8.961c10.148,5.139,19.909,4.003,28.999-1.214&#10;&#9;&#9;c6.146-3.563,11.207-1.782,16.294,0.671c4.88,2.324,6.352,6.636,5.371,11.569c-1.524,7.566-4.752,11.62-10.639,11.93&#10;&#9;&#9;c-4.854,0.232-8.96,1.937-12.911,4.338c-6.894,4.157-13.583,4.881-20.684,0.181c-9.709-6.404-19.058-5.035-28.147,1.808&#10;&#9;&#9;c-10.458,7.876-22.698,12.162-34.861,16.449C761.963,309.381,755.094,308.4,748.793,303.08z M397.501,235.089&#10;&#9;&#9;c0-1.833,0.284-3.667,0.568-5.5c2.634-18.179,6.998-17.611,20.555-19.6c5.758-0.852,10.329-2.711,15.107-5.552&#10;&#9;&#9;c8.134-4.906,16.785-7.205,26.236-3.357c15.416,6.249,21.2,4.467,30.368-10.071c3.228-5.139,7.256-8.057,13.041-9.141&#10;&#9;&#9;c5.087-0.981,9.761-0.516,13.841,3.021c3.538,3.073,7.695,5.061,12.111,6.481c3.021,0.981,6.016,1.188,8.935-0.387&#10;&#9;&#9;c0.852-0.465,1.446-1.085,1.42-2.092c-0.052-1.11-0.955-1.756-1.782-1.782c-8.16-0.284-14.28-4.855-20.736-9.141&#10;&#9;&#9;c-7.773-5.19-25.487-1.162-29.825,7.05c-2.298,4.364-5.19,8.315-9.192,11.439c-3.15,2.453-6.301,3.667-10.148,1.73&#10;&#9;&#9;c-1.653-0.826-3.435-1.369-5.113-2.117c-11.801-5.139-22.724-3.073-33.053,3.951c-1.214,0.826-2.195,2.143-4.519,1.291&#10;&#9;&#9;c1.575-11.982,7.54-21.691,16.036-29.954c2.815-2.737,6.585-3.383,10.355-1.885c10.716,4.261,19.186-0.026,26.726-7.179&#10;&#9;&#9;c4.132-3.951,8.703-6.946,14.228-8.031c6.869-1.369,13.919-1.265,18.851,4.442c8.108,9.425,18.954,12.886,30.368,15.597&#10;&#9;&#9;c-1.756-5.01-2.763-5.939-8.134-7.643c-10.794-3.434-11-3.564-18.851-13.066c10.303-4.338,18.773-0.904,26.855,5.939&#10;&#9;&#9;c0.826-5.707-4.26-7.024-5.913-10.975c9.605-3.073,19.186-2.918,29.024-2.143c-5.733,4.002-11.852,7.153-17.275,12.214&#10;&#9;&#9;c3.383,2.97,6.327,0.981,8.496-0.465c7.721-5.113,15.984-7.437,25.255-7.179c3.254,0.103,6.637-1.188,9.839-2.221&#10;&#9;&#9;c18.334-5.913,36.694-7.101,55.209-0.904c11.801,3.951,24.067,4.984,36.359,5.035c13.892,0.052,26.546,4.648,39.199,9.374&#10;&#9;&#9;c5.862,2.169,10.2,6.636,14.616,10.82c-1.239,2.866-3.59,2.582-5.604,2.092c-3.563-0.852-7.024-1.988-10.381-3.667&#10;&#9;&#9;c-17.353-8.677-35.351-13.609-55.105-10.897c-16.243,2.221-32.459,1.575-48.469-2.763c-12.602-3.409-24.3-0.336-35.016,6.843&#10;&#9;&#9;c-9.735,6.507-19.728,12.447-31.504,14.693c0.774,3.564,2.995,3.124,5.035,2.892c10.148-1.162,18.463-6.714,26.649-12.034&#10;&#9;&#9;c11.775-7.618,24.041-10.432,37.623-6.533c16.011,4.622,32.33,3.77,48.547,2.143c17.147-1.704,32.924,2.479,48.031,9.838&#10;&#9;&#9;c7.101,3.434,14.099,5.681,22.079,5.113c6.739-0.491,13.428,0.052,20.942,5.061c-19.264-1.395-36.642,0.129-54.021,2.401&#10;&#9;&#9;c-8.935,1.162-17.741,3.099-25.849,6.456c-14.409,5.913-27.062,3.124-39.199-5.087c-6.12-4.157-12.369-7.876-19.161-10.897&#10;&#9;&#9;c-6.275-2.789-12.42-3.305-18.824-1.265c-8.186,2.634-16.398,5.345-23.473,10.432c-7.695,5.578-16.01,9.038-25.694,8.651&#10;&#9;&#9;c-2.092-0.103-4.365-0.232-5.914,2.35c5.422,4.571,11.594,2.995,17.405,1.963c5.139-0.93,9.787-3.46,14.047-6.662&#10;&#9;&#9;c4.416-3.331,9.477-5.578,14.332-8.186c14.486-7.876,27.243-4.209,39.509,4.648c7.514,5.449,15.313,10.252,24.634,11.93&#10;&#9;&#9;c7.101,1.291,13.996,0.904,20.891-1.472c26.804-9.219,54.616-11.801,82.685-10.639c11.439,0.465,21.743,4.751,25.719,17.973&#10;&#9;&#9;c-6.301,3.021-11.853,7.179-15.054,14.28c3.073,1.317,4.312-1.394,5.887-2.737c14.022-11.853,30.497-10.071,41.42,4.906&#10;&#9;&#9;c4.441,6.094,9.942,9.038,17.379,7.979c5.397-0.775,10.381,1.162,15.287,2.66c4.028,1.214,7.798,3.564,8.082,8.909&#10;&#9;&#9;c0.284,5.242-1.549,8.909-6.301,11.13c-8.083,3.796-16.191,5.371-24.79,1.446c-9.735-4.442-19.186-9.348-30.419-9.735&#10;&#9;&#9;c-9.864-0.31-22.311,6.094-25.823,15.261c-1.885,4.906-3.021,10.2-8.469,12.498c-6.843,2.918-13.867,5.139-21.459,3.28&#10;&#9;&#9;c-2.686-0.646-5.526-1.136-7.902-2.427c-6.739-3.693-13.686-2.712-20.684-1.627c-4.131,0.646-7.618,2.376-9.451,6.482&#10;&#9;&#9;c-2.815,6.378-8.367,8.005-14.487,7.437c-9.167-0.852-18.385-1.523-27.372-3.718c-6.146-1.498-11.801-4.39-15.933-8.883&#10;&#9;&#9;c-13.273-14.435-30.703-17.405-48.753-17.973c-12.963-0.413-24.945-2.453-35.171-11.026c-1.369-1.162-3.228-1.782-4.932-2.427&#10;&#9;&#9;c-0.749-0.284-1.705-0.052-3.331-0.052c9.477,11.414,20.968,17.482,35.016,18.127c10.484,0.491,20.839,1.446,31.013,4.003&#10;&#9;&#9;c5.733,1.42,11.362,3.357,15.468,7.721c16.036,16.966,37.004,19.109,58.462,19.987c9.761,0.387,19.548-1.214,29.309,1.627&#10;&#9;&#9;c8.186,2.401,15.081,6.791,22.027,11.259c0.981,0.62,2.298,1.679,2.375,2.582c0.775,11.646,10.51,13.17,18.541,16.501&#10;&#9;&#9;c2.143,0.878,4.622,0.981,6.972,1.42c-0.413,3.357-4.519,4.416-4.312,8.909c24.041-16.837,44.777-5.759,66.494,7.463&#10;&#9;&#9;c-7.85,0.723-14.641,1.265-21.356-0.801c-7.566-2.324-15.235-2.014-22.879-1.162c-6.637,0.723-12.034,4.106-16.062,9.503&#10;&#9;&#9;c2.092,2.737,3.564,0.542,4.752-0.258c9.994-6.714,20.736-6.921,31.84-3.848c8.779,2.427,17.56,2.582,26.391,0.336&#10;&#9;&#9;c6.404-1.601,11.879-4.571,15.675-10.174v-0.026c9.916-4.545,14.512-13.893,18.902-22.724c3.46-6.921,7.462-12.033,14.357-15.674&#10;&#9;&#9;c7.127-3.744,11.724-10.742,17.482-16.242c6.869-6.507,13.351-13.531,21.923-17.611c1.111,0.491,1.265,1.059,0.542,1.549&#10;&#9;&#9;c-10.277,7.05-16.423,17.121-21.407,28.224c-2.995,6.714-5.835,13.583-10.535,19.367c-4.132,5.087-9.374,8.806-14.977,12.111&#10;&#9;&#9;c-2.556,1.549-5.81,2.195-7.954,6.249c13.712-2.789,23.886-9.193,30.549-20.581c3.538-6.094,6.688-12.472,9.425-18.954&#10;&#9;&#9;c4.467-10.639,11.853-18.489,21.355-24.687c9.296-6.068,15.184-4.442,19.574,5.681c0.723,1.653,1.55,3.357,1.007,6.043&#10;&#9;&#9;c-1.679,1.239-4.106,1.446-6.43,1.11c-6.894-0.981-11,2.66-14.073,8.134c-4.209,7.488-8.315,15.055-12.575,22.492&#10;&#9;&#9;c-6.507,11.362-15.623,20.555-25.281,29.128c-11.337,10.045-24.97,9.58-36.436-0.646c-1.601-1.42-2.995-3.125-5.448-2.944&#10;&#9;&#9;c4.235,16.32,28.947,20.684,43.356,8.728c9.71-8.083,18.567-17.12,25.177-28.018c4.933-8.134,9.452-16.527,14.281-24.738&#10;&#9;&#9;c1.807-3.073,3.228-6.817,7.772-6.92c2.273,1.937,0.103,3.357-0.62,4.726c-3.434,6.585-5.81,13.531-7.411,20.787&#10;&#9;&#9;c-2.531,11.439-6.378,22.44-11.13,33.13c-5.888,13.196-15.235,22.879-28.637,28.612c-7.876,3.383-15.468,7.205-24.377,7.824&#10;&#9;&#9;c-3.641,0.258-7.024-1.033-11.336-1.007c5.629,7.669,13.04,6.275,19.083,4.571c14.228-4.003,27.837-9.787,38.399-20.865&#10;&#9;&#9;c0.981-1.033,1.678-2.686,4.26-2.402c-3.357,16.217-8.935,30.6-25.538,37.779c-2.247,0.981-4.442,2.117-6.611,3.254&#10;&#9;&#9;c-11.362,5.913-21.743,4.751-31.529-3.718c-5.682-4.932-12.086-8.935-19.522-11.104c3.718,6.895,10.975,10.071,16.862,16.398&#10;&#9;&#9;c-10.949,1.291-20.632-0.155-30.264-0.207c-1.937-0.026-3.383-1.446-4.519-2.918c-7.127-9.193-14.539-18.205-20.968-30.29&#10;&#9;&#9;c11.75,3.822,21.743,13.66,33.027,2.608c-17.146,4.7-27.837-8.134-42.297-16.165c3.099,18.696,14.331,30.755,22.904,43.64&#10;&#9;&#9;c-0.413,2.169-1.678,2.195-2.892,2.195c-11.956-0.052-23.912-0.103-35.868-0.258c-3.021-0.052-6.017-0.052-8.754-2.092&#10;&#9;&#9;c-19.057-14.203-41.239-20.219-64.196-23.705c-27.294-4.132-54.512-3.667-81.445,3.228c-6.275,1.601-12.318,3.667-18.076,6.688&#10;&#9;&#9;c-17.534,9.245-23.912,24.661-24.273,43.382c-0.078,4.209,0.568,8.444,0.929,13.092c-11.723-1.239-3.899-12.343-9.632-16.733&#10;&#9;&#9;c-3.202,2.221-2.272,5.758-2.505,8.805c-0.181,2.247-0.232,4.648-3.305,4.312c-11.594-1.291-23.111-0.516-34.189,1.988&#10;&#9;&#9;c-1.911-3.977-0.878-7.075-0.878-10.097c-0.052-15.081-5.268-28.224-14.719-39.793c-3.873-4.726-8.703-7.075-14.951-8.005&#10;&#9;&#9;c-11.879-1.756-23.809-2.272-35.765-3.021c-15.468-0.981-30.677,0.8-45.913,2.763c-6.585,0.852-6.61,0.955-8.082-5.19&#10;&#9;&#9;c-0.491-2.092-0.646-4.261-1.162-6.352c-1.239-5.113-0.62-9.09,3.873-13.015c6.197-5.423,8.444-13.454,10.484-21.2&#10;&#9;&#9;c2.97-11.285,5.397-22.698,8.341-34.009c1.834-6.946,7.127-12.059,10.639-18.128c1.033-1.782,3.28-1.317,5.035-0.568&#10;&#9;&#9;c11.569,4.984,20.762,0,29.541-6.895c3.383-2.66,6.921-5.139,10.149-7.953c7.592-6.662,16.449-8.986,26.391-8.805&#10;&#9;&#9;c11.801,0.181,22.44-3.331,30.961-11.904c2.298-2.298,4.958-4.519,4.906-8.496c-2.918-0.206-3.899,2.014-5.371,3.228&#10;&#9;&#9;c-9.58,7.953-20.271,12.421-32.976,11.982c-9.167-0.336-17.611,2.221-24.583,8.651c-3.177,2.892-6.637,5.474-9.968,8.212&#10;&#9;&#9;c-3.099,2.531-6.223,5.242-10.019,6.481c-12.086,3.925-16.475,5.81-23.189-7.566c-2.35-4.674-4.519-9.399-6.869-14.073&#10;&#9;&#9;c-1.317-2.608-1.911-5.81-5.371-7.463c-1.007,5.294,2.273,9.632,2.221,15.365c-10.975-0.387-17.74,6.817-24.48,14.099&#10;&#9;&#9;c-0.827,0.878-1.704,1.833-2.763,2.376c-3.977,2.014-8.211-0.568-7.075-4.751c1.937-7.101,2.401-14.977,10.769-19.006&#10;&#9;&#9;c5.835-2.815,9.684-8.418,12.86-14.177c1.343-2.402,2.531-4.906,3.848-7.334c1.136-2.143,2.091-4.881,5.19-4.364&#10;&#9;&#9;c2.763,0.439,2.505,3.228,2.814,5.19c1.395,9.245,5.862,15.39,15.752,16.346c2.066,0.181,3.021,1.833,4.441,2.944&#10;&#9;&#9;c9.374,7.411,21.588,6.688,30.057-1.756c1.937-1.963,3.409-4.364,5.345-6.327c4.958-5.035,10.252-8.78,17.973-5.655&#10;&#9;&#9;c2.48,0.981,5.449,0.775,8.211,0.93c11.647,0.671,18.231-4.08,22.415-16.449c-2.789,0.697-4.106,2.789-5.552,4.441&#10;&#9;&#9;c-5.914,6.636-13.377,9.27-21.614,6.507c-12.679-4.287-21.149,0.878-28.74,10.329c-6.792,8.444-11.827,9.219-23.473,4.39&#10;&#9;&#9;c3.357-2.712,6.352-5.19,9.399-7.592c5.165-4.08,8.677-9.503,12.292-14.848c7.36-11.001,11.775-12.653,24.842-9.942&#10;&#9;&#9;c10.381,2.143,20.167,0.904,28.25-6.74c3.409-3.202,5.449-7.127,6.326-13.454c-2.634,3.176-4.183,5.01-5.707,6.869&#10;&#9;&#9;c-7.385,9.012-16.578,11.517-27.889,8.935c-16.113-3.693-22.93-0.516-30.651,11.672c-3.797,6.017-8.16,11.491-13.971,15.778&#10;&#9;&#9;c-10.561,7.824-19.702,4.984-23.034-7.463c-1.11-4.158-1.395-9.09-6.869-9.606c-5.733-0.542-8.754,3.409-10.975,8.212&#10;&#9;&#9;c-2.712,5.862-5.784,11.517-10.588,16.088c-5.965,5.655-7.153,5.345-11.052-2.169C396.752,244.85,397.501,239.969,397.501,235.089z&#10;&#9;&#9; M878.062,439.063c2.608,2.066,7.334,1.136,8.444,4.7c1.446,4.596-1.11,8.935-2.711,13.221c-0.207,0.542-0.749,0.955-1.446,1.833&#10;&#9;&#9;c-4.184-2.737-8.237-5.836-12.705-8.186c-4.467-2.35-9.296-2.505-13.996,0.129c0.594,3.073,2.841,1.963,4.312,2.376&#10;&#9;&#9;c1.472,0.413,3.099,0.413,4.468,0.981c14.486,6.043,18.592,10.716,7.979,22.879c-4.39,5.035-7.902,10.871-14.9,13.17&#10;&#9;&#9;c-2.427,0.801-4.183,3.512-6.301,5.294c-2.272,1.911-4.106,4.648-8.005,4.338c-1.73-4.596,1.524-7.411,3.977-10.303&#10;&#9;&#9;c2.556-3.021,5.784-5.5,8.315-8.573c7.101-8.625,6.74-15.519-0.826-23.55c-1.471-1.549-2.84-3.202-4.157-4.906&#10;&#9;&#9;c-2.712-3.46-3.744-6.404,0.516-10.097c4.39-3.822,6.869-9.399,8.935-14.874c3.951-10.536,10.769-16.578,22.647-16.63&#10;&#9;&#9;c3.305-0.026,4.622,0.878,5.113,3.486c1.369,7.204,1.859,14.435,0.207,21.794c-6.869,0.671-10.226-5.294-16.088-7.799&#10;&#9;&#9;C871.167,434.157,874.757,436.481,878.062,439.063z M793.518,413.008c-0.335-3.383,1.007-4.932,4.752-4.751&#10;&#9;&#9;c21.381,0.93,42.763,1.704,64.143,2.505c-20.839,15.623-43.872,26.494-67.63,35.842c-2.375-1.73-1.42-4.054-1.446-6.043&#10;&#9;&#9;C793.234,431.368,794.396,422.201,793.518,413.008z M833.543,434.363c6.74-3.899,13.66-7.463,22.053-12.008&#10;&#9;&#9;c-1.756,7.411-4.183,11.956-7.669,15.829c-3.693,4.157-9.994,5.165-14.125,2.66C830.987,439.14,830.677,436.042,833.543,434.363z&#10;&#9;&#9; M584.845,442.188c-1.808-8.392-1.601-16.965,1.497-25.384c5.656-15.39,16.579-24.583,31.917-29.309&#10;&#9;&#9;c15.958-4.906,32.278-7.256,48.986-7.153c20.348,0.077,40.361,2.995,60.064,7.927c6.249,1.575,12.085,4.364,18.05,6.869&#10;&#9;&#9;c9.709,4.106,15.597,11.285,19.315,20.994c8.444,22.182,6.946,44.338,1.524,66.933c-6.25,25.9-24.635,39.302-47.333,48.702&#10;&#9;&#9;c-15.932,6.585-32.717,7.902-49.709,6.223c-17.069-1.704-34.241-2.789-50.535-9.193c-14.771-5.81-23.292-16.113-25.41-32.046&#10;&#9;&#9;C590.784,478.52,588.744,460.238,584.845,442.188z M585.387,485.544c-3.77-3.047-2.505-6.688-2.143-9.864&#10;&#9;&#9;C585.878,478.649,586.11,481.748,585.387,485.544z M767.618,406.733c6.069,1.472,10.613,1.472,15.158,1.343&#10;&#9;&#9;c3.667-0.103,5.681,1.162,5.681,5.242c-0.026,10.691,0.129,21.381,0.336,32.072c0.103,4.7-3.228,4.416-6.25,4.493&#10;&#9;&#9;c-2.685,0.052-6.094,0.568-5.991-3.589C776.888,432.891,772.344,420.574,767.618,406.733z M527.363,517.513&#10;&#9;&#9;c-2.659-0.362-5.319-0.646-8.005-0.826c0.207-0.439,0.361-0.904,0.542-1.395c2.324-6.662,5.371-13.015,5.707-20.271&#10;&#9;&#9;c0.103-2.376,0-5.655,4.054-6.972c1.678,3.228,1.162,6.559,0.723,9.658C529.429,504.317,528.525,510.928,527.363,517.513z&#10;&#9;&#9; M531.546,473.665c-1.523,2.143-0.207,5.552-3.899,7.463c-0.749-3.202-0.827-5.888-0.052-8.496c0.362-1.24,1.601-1.833,2.892-1.601&#10;&#9;&#9;C532.089,471.316,532.321,472.581,531.546,473.665z M526.175,465.531c-1.497-1.963-1.395-3.848-1.446-5.655&#10;&#9;&#9;c-0.336-9.838,0.646-10.949,10.071-13.015c13.17-2.892,26.184-2.402,39.173,1.214c5.216,1.472,8.754,3.77,8.109,10.045&#10;&#9;&#9;c-0.31,2.944,0.361,5.991,0.671,9.968C563.412,462.458,544.793,460.005,526.175,465.531z M406.539,290.246&#10;&#9;&#9;c3.563-3.925,7.024-7.721,10.51-11.517c1.033-1.11,2.091-2.221,3.201-3.254c3.925-3.693,8.986-6.068,13.971-5.681&#10;&#9;&#9;c3.796,0.284,4.803,5.681,7.824,9.838c-4.39,2.531-6.172,6.507-8.547,9.993C424.253,303.132,415.654,303.132,406.539,290.246z&#10;&#9;&#9; M394.789,354.803c-0.827-1.265-1.395-2.711-2.427-4.777c10.509-5.216,13.712-13.867,12.292-24.041&#10;&#9;&#9;c-1.111-7.979-0.284-16.423-4.132-23.963c-1.11,7.928-1.11,15.829-0.671,23.731c0.31,5.268-0.103,10.458-3.409,14.925&#10;&#9;&#9;c-3.228,4.338-6.533,4.622-9.477,0.258c-4.08-6.094-8.444-12.24-11.156-18.98c-3.228-8.108-0.749-16.165,3.899-23.55&#10;&#9;&#9;c-1.162,7.205-0.387,14.022,2.453,20.736c2.609,6.197,2.737,14.022,12.911,16.165c-5.526-6.662-6.739-13.944-9.554-20.607&#10;&#9;&#9;c-2.763-6.611-2.892-13.17,1.369-19.29c2.505-3.564,2.221-7.514,2.143-11.517c-0.103-5.862-0.052-5.888,4.157-11.104&#10;&#9;&#9;c0.749,4.054-2.401,8.496,0.594,10.949c7.076,5.784,10.458,14.926,18.748,19.6c4.054,2.298,8.341,1.291,13.402,2.298&#10;&#9;&#9;c-5.036,14.125-6.843,28.792-12.421,42.401c-1.136,2.789-2.867,5.474-4.854,7.773C403.517,361.776,399.024,361.362,394.789,354.803&#10;&#9;&#9;z M411.832,511.315c-12.318-5.888-21.433-14.848-24.635-29.076c-4.726-20.994-4.287-42.065-1.265-63.059&#10;&#9;&#9;c2.531-17.585,15.339-26.004,31.452-29.309c16.243-3.357,32.846-4.545,49.45-3.228c10.665,0.852,21.459,0.232,32.046,2.815&#10;&#9;&#9;c4.08,0.981,7.462,2.324,10.226,5.5c8.108,9.296,13.066,19.961,14.203,32.278c0.387,3.977,0.568,7.979,0.775,11.956&#10;&#9;&#9;c0.078,2.117,0.646,4.261-0.827,6.223c-5.294,7.076-3.899,15.029-3.021,23.008c1.549,14.177,0.284,28.147-4.933,41.523&#10;&#9;&#9;c-0.955,2.427-2.143,4.622-3.615,6.456c-15.571-0.052-30.471,2.815-44.183,8.134C448.165,523.994,429.495,519.785,411.832,511.315z&#10;&#9;&#9; M443.155,529.417c1.188-1.24,2.427-1.394,3.615-1.11c2.892,0.723,5.81,1.265,8.728,1.653c-3.538,1.833-6.998,3.848-10.303,6.017&#10;&#9;&#9;C444.524,533.781,443.852,531.586,443.155,529.417z M396.39,636.401c-0.026-36.901,17.301-70.806,46.248-91.8&#10;&#9;&#9;c1.42-1.007,2.866-2.014,4.312-2.97c6.507-4.261,13.557-7.902,21.071-10.794c13.066-5.061,27.553-7.902,43.176-8.031&#10;&#9;&#9;c1.316,0,2.634,0,3.95,0.026c3.745,0.129,7.411,0.413,11.052,0.878c1.782,0.207,3.538,0.465,5.294,0.8&#10;&#9;&#9;c29.929,5.242,55.726,22.44,72.588,46.507c1.162,1.679,2.298,3.383,3.382,5.139c9.942,15.907,16.088,34.473,17.25,54.357&#10;&#9;&#9;c0.129,2.092,0.207,4.235,0.207,6.378v0.62c-0.026,43.305-24.61,81.445-60.529,100.631c-2.453,1.343-4.958,2.556-7.514,3.693&#10;&#9;&#9;c-14.022,6.223-29.516,9.632-45.758,9.529c-11.362-0.078-22.337-1.704-32.692-4.726c-2.582-0.749-5.165-1.601-7.669-2.531&#10;&#9;&#9;C427.274,728.097,396.441,687.065,396.39,636.401z M853.659,538.661c-3.202,4.596-6.378,9.089-11.31,11.93&#10;&#9;&#9;c-7.85,4.545-12.809,2.531-15.081-6.146c-1.214-4.674-2.195-9.399-4.157-13.97c-0.982,8.444-3.745,17.043,2.788,24.609&#10;&#9;&#9;c2.247,2.582,2.789,5.345,2.118,8.521c-2.118,10.045-0.852,20.168-0.904,30.29c-0.129,21.82-2.272,43.563-5.474,65.125&#10;&#9;&#9;c-3.744,25.177-7.902,50.329-12.06,75.454c-5.99,35.997-15.468,71.297-25.435,106.442c-8.884,31.297-17.043,62.827-25.513,94.227&#10;&#9;&#9;c-0.646,2.376-1.291,4.751-0.103,9.322c14.642-29.49,18.36-60.761,29.128-90.457c21.872,14.022,44.777,24.764,64.583,40.516&#10;&#9;&#9;c16.243,12.963,20.968,36.643,11.44,55.028c-13.48,25.978-28.586,50.974-47.876,73.078c-14.59,16.733-31.633,30.936-49.27,44.364&#10;&#9;&#9;c-18.076,13.789-35.713,28.276-54.589,40.929c-21.433,14.357-44.054,26.856-69.541,33.079c-18.411,4.467-34.293,0.155-48.96-11.775&#10;&#9;&#9;c-18.592-15.106-36.281-31.323-55.441-45.732c-6.869-5.165-13.092-11.155-19.626-16.785c-16.345-14.099-34.654-25.436-52.549-37.34&#10;&#9;&#9;c-25.849-17.198-51.155-35.093-75.971-53.789c-21.768-16.423-43.459-33.079-66.777-47.565&#10;&#9;&#9;c-26.572-16.501-52.369-34.344-77.081-53.634c-5.139-4.003-9.916-8.315-13.711-13.583c-5.526-7.695-4.106-11.517,5.009-13.247&#10;&#9;&#9;c35.584-6.843,71.142-13.815,106.803-20.297c39.353-7.179,73.723-24.661,104.763-49.321c6.998-5.578,13.015-12.188,18.67-19.109&#10;&#9;&#9;c0.775-0.955,1.446-2.014,3.099-1.859c-0.724,22.233-8.884,44.441-1.343,66.829c2.969-0.31,3.305-1.756,3.15-3.357&#10;&#9;&#9;c-2.48-22.621,3.047-44.622,5.294-66.881c0.025-0.284,0.051-0.568,0.077-0.852c10.02,2.918,20.426,4.519,30.91,4.7&#10;&#9;&#9;c18.928,0.31,38.243-4.209,55.751-12.989c15.984,4.777,32.382,5.758,49.244,5.578c33.466-0.387,62.026-13.299,89.063-31.168&#10;&#9;&#9;c31.246-20.607,56.655-47.127,77.391-78.088c10.613-15.881,19.341-32.846,25.074-51.155c1.265-4.003,3.15-8.057,1.756-12.834&#10;&#9;&#9;c-3.977,0.775-3.822,4.493-4.828,6.946c-8.289,20.245-17.224,40.18-30.006,57.998c-25.048,34.912-55.26,64.195-93.608,84.492&#10;&#9;&#9;c-30.987,16.423-63.808,21.846-98.178,15.829c-2.815-0.491-5.604-1.085-8.341-1.73c33.182-19.625,58.308-55.364,59.16-103.033&#10;&#9;&#9;c0-0.31,0-0.646-0.026-0.955c3.383-0.439,6.611-1.395,8.237-5.345c-0.542-0.439-0.749-0.723-1.007-0.749&#10;&#9;&#9;c-0.878-0.129-1.885-0.439-2.659-0.181c-1.627,0.568-3.202,0.878-4.777,1.007c-1.317-23.06-8.496-43.485-19.651-60.425&#10;&#9;&#9;c0.052-0.078,0.129-0.129,0.18-0.207c10.149,12.421,17.353,25.719,23.034,40.206c2.118-5.888-0.18-11.026-2.246-16.088&#10;&#9;&#9;c-6.637-16.346-17.74-30.032-27.088-44.777c-1.11-1.782-2.789-3.331-4.519-4.545c-2.324-1.678-5.294-5.345-7.721-2.427&#10;&#9;&#9;c-2.221,2.634,2.375,4.08,4.003,5.81c4.803,5.061,7.592,9.322,8.315,13.635c-18.283-23.163-44.441-38.579-72.562-43.795&#10;&#9;&#9;c2.453-13.376,3.564-27.011,4.08-40.748c0.31-8.573-0.49-9.09,9.296-9.167c4.597-0.026,9.219,0.568,13.815,0.439&#10;&#9;&#9;c4.803-0.129,6.404,2.401,6.921,6.636c0.697,5.474,1.575,10.949,2.479,16.397c0.465,2.918,0.722,5.991,4.26,8.806&#10;&#9;&#9;c2.375-10.148-1.472-19.238-0.904-28.999c3.357-0.077,5.785,0.413,5.656,4.7c-0.078,2.453,0,4.906,0.18,7.359&#10;&#9;&#9;c0.181,2.531,0.93,5.759,3.254,6.198c6.611,1.265,6.404,6.533,7.308,11.078c2.299,11.672,7.695,21.407,17.843,27.889&#10;&#9;&#9;c6.74,4.338,14.228,7.179,22.079,9.012c16.836,3.977,33.983,4.932,51.207,5.758c26.83,1.291,49.941-7.85,70.883-23.757&#10;&#9;&#9;c8.805-6.688,14.848-15.029,17.895-25.978c3.228-11.569,6.843-22.956,7.36-35.042c0.129-2.608,1.11-4.08,3.951-3.693&#10;&#9;&#9;c6.171,0.904,11.232-1.859,16.552-4.467c8.237-4.08,16.811-7.515,25.255-11.181c2.014-0.878,4.029-1.859,5.113,1.343&#10;&#9;&#9;c1.627,4.829,5.836,6.352,10.174,6.662c4.674,0.336,6.843,2.298,8.031,6.766c0.671,2.479,2.841,4.7,4.648,6.74&#10;&#9;&#9;c5.758,6.611,5.991,10.148,0.439,16.681c-2.169,2.582-4.752,4.829-7.127,7.205c-2.892,2.892-4.854,6.352-6.146,10.174&#10;&#9;&#9;c-1.033,3.176-0.594,6.12,2.04,8.418c2.711,2.35,5.732,2.169,8.521,0.336c2.531-1.679,4.907-3.667,7.179-5.681&#10;&#9;&#9;c6.043-5.345,6.017-5.397,13.428-0.697c-2.04-6.585,2.169-9.761,5.707-13.609c11.337-12.317,18.283-26.701,19.936-43.589&#10;&#9;&#9;c0.929-9.219,2.091-18.437-0.594-27.398c-1.291-4.338-0.129-6.275,3.692-7.618c1.963-0.697,3.822-1.627,6.533-2.789&#10;&#9;&#9;c3.202,23.783,4.209,46.533-8.677,67.449C880.954,492.774,868.921,516.686,853.659,538.661z M932.961,417.114&#10;&#9;&#9;c-4.984-3.615-7.256-10.019-14.357-12.731c1.11,5.603,4.286,8.986,6.817,12.447c4.88,6.714,4.7,12.937-0.258,19.367&#10;&#9;&#9;c-4.209,5.5-6.326,11.904-7.566,18.592c-3.176,17.172-10.51,31.943-24.196,43.279c-5.81,4.803-9.218,11.362-11.956,18.308&#10;&#9;&#9;c-3.589,9.115-9.451,16.268-18.154,21.097c-0.439-0.852-1.033-1.549-0.878-1.73c12.886-18.36,22.311-38.76,34.422-57.559&#10;&#9;&#9;c11.93-18.567,17.766-38.812,13.867-60.451c-2.505-13.944,0.852-24.325,11.543-33.879&#10;&#9;&#9;C930.767,393.822,935.208,407.301,932.961,417.114z M931.954,364.642c-1.937,2.169-0.052,3.357,1.084,4.648&#10;&#9;&#9;c4.519,5.165,8.16,10.794,9.58,17.611c1.369,6.456,1.265,12.731-2.866,18.463c-2.737-1.446-2.608-4.08-3.383-6.249&#10;&#9;&#9;c-1.704-4.932-2.918-10.303-6.843-13.918c-4.907-4.493-6.12-9.193-3.616-15.339c1.627-4.028,1.524-8.444,0.982-12.756&#10;&#9;&#9;c-0.388-2.841-0.569-5.5,3.021-7.618c5.707,8.108,15.055,13.919,14.977,25.513C940.373,371.433,937.609,366.32,931.954,364.642z&#10;&#9;&#9; M968.984,327.793c-4.467-3.718-6.558-9.115-12.446-10.432c-1.188,2.866,0.878,4.209,2.014,5.681&#10;&#9;&#9;c3.744,4.958,6.688,10.303,8.443,16.242c2.221,7.489,1.085,14.641-2.814,21.278c-4.184,7.153-12.369,7.902-17.379,1.446&#10;&#9;&#9;c-3.951-5.113-8.057-10.071-13.273-13.944c-2.453-1.808-2.763-3.512-1.575-6.198c5.268-11.827,8.315-24.351,11.336-36.875&#10;&#9;&#9;c1.291-5.371,3.46-10.484,6.224-15.287c3.331-5.81,4.26-6.017,9.709-1.782c3.124,2.453,6.223,4.984,7.85,9.554&#10;&#9;&#9;c-4.571-0.801-6.534-6.094-11.207-5.603c-1.731,2.117,0.103,3.254,1.317,4.441c4.648,4.519,8.702,9.503,12.007,15.055&#10;&#9;&#9;C972.263,316.482,972.832,321.699,968.984,327.793z" style="fill: rgb(255, 255, 255);"/>
	<path fill="#443254" d="M658.355,843.36c-19.174,20.431-39.242,39.793-60.189,58.325c-1.179,1.043-3.478,1.639-1.763,4.961&#10;&#9;&#9;c35.861-24.386,64.093-56.223,91.724-88.718c15.071-17.724,55.609-76.508,56.706-85.606c-6.536,8.458-13.234,16.797-19.578,25.397&#10;&#9;&#9;C703.745,786.879,683.301,816.778,658.355,843.36z" style="fill: rgb(255, 255, 255);"/>
	<path fill="#443254" d="M486.418,849.755c-0.866-1.955-1.681-3.944-2.714-5.81c-0.566-1.023-1.447-2.024-2.923-1.602&#10;&#9;&#9;c-1.489,0.425-1.78,1.748-1.522,2.889c0.604,2.671,1.367,5.324,2.295,7.902c7.171,19.935,17.664,38.25,27.818,56.726&#10;&#9;&#9;c0.688,1.251,1.243,2.87,3.803,2.712c0.18-2.766-1.231-5.103-2.283-7.488C502.749,886.633,494.584,868.194,486.418,849.755z" style="fill: rgb(255, 255, 255);"/>
	<path fill="#443254" d="M693.303,832.795c-19.394,21.868-37.467,42.866-57.211,62.282&#10;&#9;&#9;C654.588,884.797,692.175,844.081,693.303,832.795z" style="fill: rgb(255, 255, 255);"/>
	<path fill="#443254" d="M504.001,772.022c-6.433,8.567-5.507,26.649,1.802,40.632C506.399,799.484,503.283,786.513,504.001,772.022&#10;&#9;&#9;z" style="fill: rgb(255, 255, 255);"/>
	<path fill="#443254" d="M483.286,870.263c-0.313,7.378,2.681,13.347,7.741,18.436C491.008,881.463,490.016,874.641,483.286,870.263&#10;&#9;&#9;z" style="fill: rgb(255, 255, 255);"/>
	<path fill="#443254" d="M567.024,222.952c8.424-1.7,16.487-4.675,24.274-8.446c16.41-7.944,29.769-5.661,42.677,7.016&#10;&#9;&#9;c2.625,2.578,5.091,5.28,8.336,7.188c13.746,8.086,27.199,6.136,40.047-1.721c7.72-4.721,15.639-8.47,24.573-9.847&#10;&#9;&#9;c21.468-3.31,42.326-3.972,58.885,14.136c-2.109-7.837-7.149-13.236-14.453-16.097c-10.654-4.173-21.676-6.297-33.324-5.132&#10;&#9;&#9;c-14.254,1.425-27.59,4.72-39.838,12.759c-11.102,7.287-28.322,9.11-41.022-5.059c-1.625-1.814-3.556-3.421-5.559-4.818&#10;&#9;&#9;c-11.276-7.867-23.679-11.031-36.543-5.339c-15.782,6.984-31.335,13.855-49.401,10.807&#10;&#9;&#9;C551.965,224.815,559.55,224.461,567.024,222.952z" style="fill: rgb(255, 255, 255);"/>
	<path fill="#443254" d="M720.249,248.109c-9.339-1.27-17.232,0.442-25.228,5.686c-14.553,9.544-29.941,6.22-43.647-1.483&#10;&#9;&#9;c-9.67-5.435-19.245-10.724-29.615-14.577c-5.835-2.168-11.99-3.604-18.092-2.36c-16.171,3.295-32.123,3.289-48.713-2.399&#10;&#9;&#9;c1.263,3.338,2.974,4.084,4.642,4.878c12.528,5.97,25.675,5.209,38.817,3.225c5.543-0.836,11.031-1.56,16.465-0.202&#10;&#9;&#9;c10.193,2.546,20.352,6.023,28.636,12.283c7.78,5.879,16.197,8.206,25.282,10.027c11.127,2.23,21.55,1.038,30.677-5.861&#10;&#9;&#9;c5.645-4.268,11.623-5.171,18.236-4.116c5.212,0.831,10.445,0.733,15.634,0.092c11.165-1.379,21.039-5.28,28.964-15.858&#10;&#9;&#9;c-4.158,0.56-6.39,2.082-8.565,3.544C743.519,247.855,732.09,249.719,720.249,248.109z" style="fill: rgb(255, 255, 255);"/>
	<path fill="#443254" d="M815.036,356.986c4.903,0.005,9.831-0.327,14.703,0.063c8.242,0.658,15.801,2.69,18.055,12.328&#10;&#9;&#9;c0.212,0.905,0.929,1.505,2.094,1.325c1.505-7.413-1.411-12.128-8.46-14.905c-4.047-1.594-7.98-2.894-12.393-2.823&#10;&#9;&#9;c-10.004,0.16-20.116,1.149-29.747-3.209C803.556,354.571,808.76,356.98,815.036,356.986z" style="fill: rgb(255, 255, 255);"/>
	<path fill="#443254" d="M445.422,557.792c-10.306,5.726-17.428,14.919-21.77,28.105l-0.293,0.886l0.144,0.922&#10;&#9;&#9;c0.061,0.38,0.053,0.762,0.061,1.131c0.023,1.595,0.073,4.915,3.379,6.844c1.135,0.661,2.219,0.907,3.218,0.907&#10;&#9;&#9;c2.068,0,3.765-1.057,4.746-1.668l0.235-0.146c8.251-5.088,14.609-12.065,20.757-18.812l2.121-2.321&#10;&#9;&#9;c3.571-3.886,3.379-9.184-0.487-13.496C454.079,556.288,449.671,555.436,445.422,557.792z M452.314,568.399l-2.141,2.344&#10;&#9;&#9;c-5.997,6.578-11.663,12.795-18.88,17.302c-0.008-0.164-0.015-0.328-0.025-0.492c3.76-10.978,9.469-18.297,17.917-22.988&#10;&#9;&#9;c0.739-0.407,1.276-0.709,2.577,0.746C453.434,567.178,452.677,568.003,452.314,568.399z" style="fill: rgb(255, 255, 255);"/>
	<path fill="#443254" d="M637.026,514.204c9.325,2.345,18.728,3.19,28.286,3.341c5.518-0.283,11.055-0.367,16.549-0.893&#10;&#9;&#9;c9.387-0.899,17.888-4.153,25.139-10.34c24.535-20.935,30.84-54.355,11.236-82.702c-7.835-11.33-18.583-18.677-32.353-20.935&#10;&#9;&#9;c-13.092-2.147-26.304-1.933-39.462-0.851c-7.627,0.628-15.153,2.137-22.51,4.514c-8.783,2.838-13.713,8.889-15.776,17.577&#10;&#9;&#9;c-4.842,20.389-4.17,40.829,0.31,61.114C611.854,500.458,621.423,510.28,637.026,514.204z M612.574,434.966&#10;&#9;&#9;c0.132-0.909,0.421-1.795,0.55-2.705c2.497-17.399,4.698-19.943,21.771-23.146c17.295-3.244,34.689-3.882,52.111-0.783&#10;&#9;&#9;c5.864,1.043,11.232,3.356,15.736,7.175c30.716,26.039,27.619,67.661-4.574,90.321c-4.844,3.409-10.484,5.094-16.386,5.557&#10;&#9;&#9;c-5.808,0.455-11.635,0.657-17.454,0.971c-6.767-0.242-13.466-0.763-20.189-1.537c-17.619-2.027-26.557-13.013-29.752-29.186&#10;&#9;&#9;C611.351,466.255,610.299,450.632,612.574,434.966z" style="fill: rgb(255, 255, 255);"/>
	<path fill="#443254" d="M503.144,496.822c4.378-5.935,6.811-12.345,7.144-19.547c0.27-5.821,0.055-11.664,0.055-17.498&#10;&#9;&#9;c-0.129-8.562,0.719-17.291-1.934-25.597c-4.685-14.668-12.094-27.224-28.669-30.538c-15.272-3.053-30.681-2.455-45.431,2.54&#10;&#9;&#9;c-11.676,3.954-19.552,12.126-22.308,24.791c-2.174,9.993-2.72,19.867-1.903,30.105c1.711,21.45,12.04,35.991,32.031,43.971&#10;&#9;&#9;c10.204,4.073,20.809,4.796,31.577,5.392C486.094,511.128,495.72,506.887,503.144,496.822z M436.181,495.966&#10;&#9;&#9;c-11.189-6.451-17.774-16.711-19.682-29.612c-0.627-4.237-0.569-8.576-0.825-12.868c-0.062-7.09,0.656-14.02,2.042-21.023&#10;&#9;&#9;c2.382-12.035,9.853-19.159,21.006-21.943c14.088-3.517,28.57-4.458,42.726-0.155c12.584,3.825,18.418,14.273,21.1,25.892&#10;&#9;&#9;c3.183,13.794,3.128,28.037,1.737,42.183c-1.014,10.314-7.4,17.257-14.895,23.416c-2.159,1.774-4.91,2.5-7.729,2.709&#10;&#9;&#9;C465.732,505.747,450.181,504.037,436.181,495.966z" style="fill: rgb(255, 255, 255);"/>
</g>
</svg>